<?xml version="1.0" encoding="UTF-8" standalone="no"?>
<!-- Created with Inkscape (http://www.inkscape.org/) -->

<svg
   width="200mm"
   height="200mm"
   viewBox="0 0 200 200"
   version="1.1"
   id="svg5"
   xml:space="preserve"
   xmlns="http://www.w3.org/2000/svg"
   xmlns:svg="http://www.w3.org/2000/svg"><defs
     id="defs2" /><g
     id="layer1"><g
       id="g6673"
       transform="matrix(0.52011477,0,0,0.52011477,213.52661,-44.553902)"><g
         id="g6620"
         transform="matrix(1.3881261,0,0,1.387945,76.325394,-50.062422)"
         style="stroke-width:0.720443"><g
           id="g6484"
           transform="translate(-318.02917,79.197472)"
           style="stroke-width:0.720443"><path
             id="path5605"
             style="fill:none;fill-opacity:1;stroke:#fffeff;stroke-width:13.202;stroke-linecap:square;stroke-dasharray:none;stroke-opacity:1"
             d="M 101.29505,44.242335 C 80.233754,75.592147 56.27681,88.075487 9.2194001,82.885417 7.3357066,180.02273 52.879931,248.9549 101.29505,274.37039 149.71019,248.9549 195.2561,180.02273 193.37238,82.885417 c -47.0574,5.19007 -71.01603,-7.29327 -92.07733,-38.643082 z" /><g
             id="g6478"
             transform="translate(219.41468,-47.894699)"
             style="stroke-width:0.720443"><path
               style="fill:none;fill-opacity:1;stroke:#ffffff;stroke-width:3.89038;stroke-linecap:round;stroke-linejoin:round;stroke-dasharray:none;stroke-opacity:1"
               d="m -113.37396,148.5 c -28.17654,0.98895 -46.12317,17.90673 -44.18541,44.24896 -0.31508,10.50309 -4.02164,17.85895 -10.58334,31.74999 l 12.23698,-0.0992 c -1.1913,25.37337 -9.84751,30.03055 20.30677,26.42526 l 0.66146,17.72708 40.216667,-9.39271 c 1.088551,-29.52747 17.733038,-29.2973 23.547916,-60.45729"
               id="path6402" /><path
               id="path6456"
               style="fill:#ffffff;fill-opacity:1;stroke:none;stroke-width:2.22965;stroke-linecap:round;stroke-linejoin:round;stroke-dasharray:none;stroke-opacity:1"
               d="m -86.764607,148.85209 a 37.393678,22.791038 0 0 0 -37.393673,22.79103 37.393678,22.791038 0 0 0 12.24153,16.85392 l -0.0602,-0.0224 c 0,0 -0.71756,8.00662 -6.31296,10.32666 -5.59538,2.32005 10.26126,3.37032 18.68671,-5.75267 l -0.04742,-0.0176 a 37.393678,22.791038 0 0 0 12.886063,1.40312 37.393678,22.791038 0 0 0 37.393671,-22.79104 37.393678,22.791038 0 0 0 -37.393718,-22.79098 z m -0.06397,5.04951 c 2.553697,0.003 2.607278,0.0105 2.885121,0.3673 0.05994,0.0772 0.256655,0.92509 0.437145,1.88452 0.18048,0.95941 0.371657,1.9591 0.424878,2.22141 l 0.0965,0.47659 0.610929,0.20364 c 0.33584,0.11183 0.912593,0.34042 1.281569,0.50858 l 0.670638,0.306 1.875445,-1.28476 c 2.54665,-1.74431 2.167523,-1.78273 4.394324,0.44406 2.227398,2.2274 2.18991,1.84482 0.432883,4.40446 l -1.295969,1.88771 0.275079,0.56508 c 0.15145,0.3106 0.372545,0.8482 0.49152,1.19468 0.139587,0.40656 0.281691,0.65763 0.400357,0.70848 0.101098,0.0434 0.990778,0.22694 1.976728,0.40783 2.300984,0.42219 2.434825,0.45973 2.660695,0.74687 0.179738,0.2285 0.189249,0.35791 0.189249,2.69747 0,2.33957 -0.0087,2.46898 -0.189249,2.69749 -0.225891,0.28717 -0.340172,0.31868 -2.752921,0.75753 -1.036539,0.18854 -1.931203,0.38815 -1.988456,0.44354 -0.05726,0.0554 -0.176973,0.32574 -0.266012,0.6008 -0.08913,0.27506 -0.302044,0.80748 -0.473395,1.18348 -0.30156,0.66171 -0.306542,0.69144 -0.156196,0.92492 0.08552,0.13267 0.653835,0.96555 1.263443,1.85039 1.544112,2.24126 1.593991,1.91661 -0.636523,4.13845 -1.692448,1.68586 -1.764237,1.74483 -2.121731,1.74483 -0.32473,0 -0.598375,-0.15639 -2.239015,-1.27944 l -1.869049,-1.27944 -0.513906,0.23563 c -0.282702,0.12961 -0.843475,0.35582 -1.246379,0.50271 -0.402875,0.14691 -0.746308,0.28093 -0.762865,0.29748 -0.02775,0.0277 -0.846002,4.25676 -0.848158,4.38366 -6.92e-4,0.031 -0.109835,0.16525 -0.243098,0.29854 l -0.242563,0.24257 h -2.510358 c -2.48916,0 -2.512763,-9.5e-4 -2.757182,-0.21218 -0.227346,-0.19557 -0.279679,-0.38924 -0.672775,-2.4933 l -0.425951,-2.28166 -0.688753,-0.2463 c -0.378611,-0.13557 -0.92298,-0.36371 -1.21014,-0.50645 l -0.522438,-0.25907 -1.776286,1.22185 c -0.976892,0.67218 -1.882304,1.26316 -2.012442,1.31302 -0.475778,0.18234 -0.722426,0.0103 -2.445861,-1.71391 -1.723275,-1.72327 -1.895855,-1.96988 -1.713915,-2.44586 0.0497,-0.13013 0.63555,-1.02951 1.301823,-1.99912 l 1.211206,-1.76295 -0.309194,-0.67916 c -0.170133,-0.37336 -0.3822,-0.90363 -0.471263,-1.17869 -0.08917,-0.27506 -0.208774,-0.54625 -0.266022,-0.6024 -0.05727,-0.0561 -0.95192,-0.25616 -1.98845,-0.4446 -2.425,-0.44088 -2.52875,-0.46921 -2.75346,-0.75487 -0.1797,-0.22846 -0.18872,-0.35806 -0.18872,-2.68949 0,-2.58735 0.0192,-2.71373 0.44408,-2.94111 0.0874,-0.0468 1.06783,-0.2545 2.17877,-0.46166 1.11094,-0.20718 2.103913,-0.41265 2.206497,-0.45634 0.120877,-0.0515 0.245804,-0.26946 0.355577,-0.61946 0.09305,-0.2969 0.309804,-0.8245 0.481392,-1.17281 l 0.311866,-0.63331 -0.541102,-0.79166 c -2.08925,-3.05635 -2.03538,-2.96831 -2.03538,-3.3532 0,-0.3568 0.0595,-0.42964 1.719795,-2.09827 1.930138,-1.93989 2.034702,-2.00233 2.69161,-1.62381 0.206404,0.11898 1.09237,0.70693 1.969269,1.30661 l 1.594497,1.0902 0.618387,-0.29534 c 0.340235,-0.16238 0.891145,-0.38724 1.224004,-0.49951 l 0.60506,-0.20419 0.429149,-2.28431 c 0.396448,-2.11278 0.447099,-2.30086 0.677035,-2.49864 0.247307,-0.21273 0.262214,-0.21402 2.74866,-0.21111 z m 0.07517,12.31298 c -0.838348,7.1e-4 -1.679852,0.19544 -2.485312,0.58322 -0.830837,0.40018 -1.969454,1.53822 -2.369616,2.36908 -0.783806,1.62736 -0.783806,3.32138 0,4.94875 0.384171,0.79766 1.538625,1.96752 2.315777,2.34671 1.210418,0.59061 2.561671,0.75472 3.802593,0.46219 v 5.4e-4 c 0.96995,-0.22864 1.727254,-0.65862 2.505035,-1.42231 1.734827,-1.70343 2.138155,-4.10525 1.064065,-6.33534 -0.397965,-0.82627 -1.538192,-1.97012 -2.366429,-2.3739 -0.792792,-0.38649 -1.627766,-0.57965 -2.466113,-0.57894 z" /></g></g><g
           id="g6594"
           style="fill:none;fill-opacity:1;stroke-width:0.720443"><g
             id="g6544"
             style="fill:none;fill-opacity:1;stroke-width:0.720443"><ellipse
               style="fill:none;fill-opacity:1;stroke:#ffffff;stroke-width:1.44089;stroke-linecap:round;stroke-linejoin:round;stroke-dasharray:none;stroke-opacity:1"
               id="path6538"
               cx="-274.5773"
               cy="192.98195"
               rx="5.1202583"
               ry="5.1449385" /><path
               style="fill:none;fill-opacity:1;stroke:#ffffff;stroke-width:1.58497;stroke-linecap:butt;stroke-linejoin:round;stroke-dasharray:none;stroke-opacity:1"
               d="m -279.69756,192.98195 h -28.08137"
               id="path6540" /></g><g
             id="g6550"
             transform="matrix(-1,0,0,1,-491.92528,119.94113)"
             style="fill:none;fill-opacity:1;stroke-width:0.720443"><ellipse
               style="fill:none;fill-opacity:1;stroke:#ffffff;stroke-width:1.44089;stroke-linecap:round;stroke-linejoin:round;stroke-dasharray:none;stroke-opacity:1"
               id="ellipse6546"
               cx="-274.5773"
               cy="192.98195"
               rx="5.1202583"
               ry="5.1449385" /><path
               style="fill:none;fill-opacity:1;stroke:#ffffff;stroke-width:1.58497;stroke-linecap:butt;stroke-linejoin:round;stroke-dasharray:none;stroke-opacity:1"
               d="m -279.69756,192.10969 h -25.41969 l -2.46904,-4.00562 c -7.09683,0.01 -12.68538,0.01 -18.05961,0.008"
               id="path6548" /></g><g
             id="g6556"
             transform="matrix(-1,0,0,1,-585.94498,104.01805)"
             style="fill:none;fill-opacity:1;stroke-width:0.720443"><ellipse
               style="fill:none;fill-opacity:1;stroke:#ffffff;stroke-width:1.44089;stroke-linecap:round;stroke-linejoin:round;stroke-dasharray:none;stroke-opacity:1"
               id="ellipse6552"
               cx="-274.5773"
               cy="192.98195"
               rx="5.1202583"
               ry="5.1449385" /><path
               style="fill:none;fill-opacity:1;stroke:#ffffff;stroke-width:1.58497;stroke-linecap:butt;stroke-linejoin:round;stroke-dasharray:none;stroke-opacity:1"
               d="m -279.69756,192.98195 h -28.08137"
               id="path6554" /></g><g
             id="g6562"
             transform="matrix(-1,0,0,1,-619.38455,62.79113)"
             style="fill:none;fill-opacity:1;stroke-width:0.720443"><ellipse
               style="fill:none;fill-opacity:1;stroke:#ffffff;stroke-width:1.44089;stroke-linecap:round;stroke-linejoin:round;stroke-dasharray:none;stroke-opacity:1"
               id="ellipse6558"
               cx="-274.5773"
               cy="192.98195"
               rx="5.1202583"
               ry="5.1449385" /><path
               style="fill:none;fill-opacity:1;stroke:#ffffff;stroke-width:1.58497;stroke-linecap:butt;stroke-linejoin:round;stroke-dasharray:none;stroke-opacity:1"
               d="m -279.69756,192.10969 h -25.41969 l -2.46904,-4.00562 c -7.09683,0.01 -12.68538,0.01 -18.05961,0.008"
               id="path6560" /></g><g
             id="g6568"
             transform="matrix(1,0,0,-1,194.93086,414.29631)"
             style="fill:none;fill-opacity:1;stroke-width:0.720443"><ellipse
               style="fill:none;fill-opacity:1;stroke:#ffffff;stroke-width:1.44089;stroke-linecap:round;stroke-linejoin:round;stroke-dasharray:none;stroke-opacity:1"
               id="ellipse6564"
               cx="-274.5773"
               cy="192.98195"
               rx="5.1202583"
               ry="5.1449385" /><path
               style="fill:none;fill-opacity:1;stroke:#ffffff;stroke-width:1.58497;stroke-linecap:butt;stroke-linejoin:round;stroke-dasharray:none;stroke-opacity:1"
               d="m -279.69756,192.10969 h -25.41969 l -2.46904,-4.00562 c -7.09683,0.01 -12.68538,0.01 -18.05961,0.008"
               id="path6566" /></g><g
             id="g6574"
             transform="translate(166.30689,75.670833)"
             style="fill:none;fill-opacity:1;stroke-width:0.720443"><ellipse
               style="fill:none;fill-opacity:1;stroke:#ffffff;stroke-width:1.44089;stroke-linecap:round;stroke-linejoin:round;stroke-dasharray:none;stroke-opacity:1"
               id="ellipse6570"
               cx="-274.5773"
               cy="192.98195"
               rx="5.1202583"
               ry="5.1449385" /><path
               style="fill:none;fill-opacity:1;stroke:#ffffff;stroke-width:1.58497;stroke-linecap:butt;stroke-linejoin:round;stroke-dasharray:none;stroke-opacity:1"
               d="m -279.69756,192.98195 h -28.08137"
               id="path6572" /></g><g
             id="g6626"
             transform="matrix(1,0,0,-1,134.787,335.97964)"
             style="fill:none;fill-opacity:1;stroke-width:0.720443"><ellipse
               style="fill:none;fill-opacity:1;stroke:#ffffff;stroke-width:1.44089;stroke-linecap:round;stroke-linejoin:round;stroke-dasharray:none;stroke-opacity:1"
               id="ellipse6622"
               cx="-274.5773"
               cy="192.98195"
               rx="5.1202583"
               ry="5.1449385" /><path
               style="fill:none;fill-opacity:1;stroke:#ffffff;stroke-width:1.58497;stroke-linecap:butt;stroke-linejoin:round;stroke-dasharray:none;stroke-opacity:1"
               d="m -279.69756,192.10969 h -25.41969 l -2.46904,-4.00562 c -7.09683,0.01 -12.68538,0.01 -18.05961,0.008"
               id="path6624" /></g><g
             id="g6632"
             transform="matrix(-1,0,0,1,-530.5517,-64.558333)"
             style="fill:none;fill-opacity:1;stroke-width:0.720443"><ellipse
               style="fill:none;fill-opacity:1;stroke:#ffffff;stroke-width:1.44089;stroke-linecap:round;stroke-linejoin:round;stroke-dasharray:none;stroke-opacity:1"
               id="ellipse6628"
               cx="-274.5773"
               cy="192.98195"
               rx="5.1202583"
               ry="5.1449385" /><path
               style="fill:none;fill-opacity:1;stroke:#ffffff;stroke-width:1.58497;stroke-linecap:butt;stroke-linejoin:round;stroke-dasharray:none;stroke-opacity:1"
               d="m -279.69756,192.98195 h -28.08137"
               id="path6630" /></g></g></g></g></g></svg>
