<svg width="756" height="682" viewBox="0 0 756 682" fill="none" xmlns="http://www.w3.org/2000/svg">
<path d="M365.653 32.989C308.182 118.524 242.809 152.584 114.401 138.423C109.261 403.453 233.54 591.528 365.653 660.872C497.767 591.528 622.051 403.453 616.911 138.423C488.502 152.584 423.125 118.524 365.653 32.989Z" stroke="#FFFEFF" stroke-width="36.0228" stroke-linecap="square"/>
<path d="M378.603 186.77C301.716 189.468 252.744 235.627 258.032 307.499C257.172 336.156 247.058 356.226 229.152 394.126L262.544 393.855C259.293 463.084 235.673 475.791 317.957 465.954L319.762 514.321L429.503 488.694C432.474 408.131 477.893 408.759 493.76 323.742" stroke="white" stroke-width="10.6152" stroke-linecap="round" stroke-linejoin="round"/>
<path d="M451.214 187.731C424.152 187.731 398.198 194.282 379.062 205.944C359.926 217.605 349.175 233.422 349.175 249.914C349.182 258.574 352.157 267.137 357.909 275.056C363.662 282.974 372.064 290.073 382.58 295.898L382.415 295.837C382.415 295.837 380.457 317.682 365.189 324.012C349.92 330.342 393.189 333.208 416.18 308.317L416.051 308.269C427.311 310.795 439.215 312.091 451.214 312.097C478.276 312.097 504.23 305.546 523.366 293.884C542.502 282.222 553.252 266.406 553.252 249.914C553.252 233.422 542.502 217.605 523.366 205.944C504.23 194.282 478.276 187.731 451.214 187.731ZM451.039 201.508C458.008 201.516 458.154 201.537 458.912 202.51C459.076 202.721 459.612 205.034 460.105 207.652C460.597 210.269 461.119 212.997 461.264 213.713L461.528 215.013L463.195 215.569C464.111 215.874 465.685 216.497 466.692 216.956L468.522 217.791L473.64 214.286C480.589 209.527 479.554 209.422 485.631 215.497C491.709 221.575 491.606 220.531 486.812 227.514L483.275 232.665L484.026 234.207C484.439 235.054 485.043 236.521 485.367 237.466C485.748 238.576 486.136 239.261 486.46 239.399C486.736 239.518 489.163 240.018 491.854 240.512C498.133 241.664 498.498 241.766 499.114 242.55C499.605 243.173 499.631 243.526 499.631 249.91C499.631 256.293 499.607 256.646 499.114 257.269C498.498 258.053 498.186 258.139 491.602 259.336C488.774 259.851 486.332 260.395 486.176 260.546C486.02 260.698 485.693 261.435 485.45 262.186C485.207 262.936 484.626 264.389 484.158 265.415C483.336 267.22 483.322 267.301 483.732 267.938C483.966 268.3 485.516 270.573 487.18 272.987C491.393 279.102 491.529 278.216 485.443 284.278C480.825 288.878 480.629 289.039 479.653 289.039C478.767 289.039 478.02 288.612 473.543 285.548L468.443 282.057L467.041 282.7C466.27 283.054 464.739 283.671 463.64 284.072C462.541 284.472 461.603 284.838 461.558 284.883C461.483 284.959 459.25 296.497 459.244 296.844C459.242 296.928 458.944 297.295 458.58 297.658L457.919 298.32H451.068C444.276 298.32 444.212 298.317 443.545 297.741C442.924 297.208 442.782 296.679 441.709 290.938L440.547 284.713L438.667 284.041C437.634 283.671 436.149 283.049 435.365 282.659L433.939 281.952L429.092 285.286C426.427 287.12 423.956 288.733 423.601 288.869C422.302 289.366 421.629 288.897 416.927 284.192C412.224 279.491 411.753 278.818 412.25 277.519C412.385 277.164 413.984 274.71 415.802 272.065L419.107 267.255L418.263 265.402C417.799 264.383 417.221 262.936 416.978 262.186C416.734 261.435 416.408 260.695 416.252 260.542C416.095 260.389 413.654 259.843 410.826 259.329C404.208 258.126 403.925 258.049 403.312 257.269C402.822 256.646 402.797 256.292 402.797 249.931C402.797 242.872 402.849 242.527 404.009 241.907C404.247 241.779 406.923 241.212 409.954 240.647C412.986 240.082 415.695 239.521 415.975 239.402C416.305 239.262 416.646 238.667 416.946 237.712C417.199 236.902 417.791 235.462 418.259 234.512L419.11 232.784L417.634 230.624C411.932 222.285 412.08 222.525 412.08 221.475C412.08 220.502 412.242 220.303 416.772 215.75C422.039 210.458 422.325 210.287 424.117 211.32C424.68 211.645 427.098 213.249 429.491 214.885L433.842 217.859L435.529 217.054C436.458 216.611 437.961 215.997 438.869 215.691L440.52 215.134L441.691 208.901C442.773 203.137 442.911 202.623 443.539 202.084C444.214 201.503 444.254 201.5 451.039 201.508ZM451.244 235.103C448.957 235.105 446.661 235.636 444.463 236.694C442.195 237.786 439.088 240.891 437.996 243.158C435.858 247.598 435.858 252.22 437.996 256.66C439.045 258.836 442.195 262.028 444.316 263.063C447.619 264.674 451.306 265.122 454.692 264.324C457.339 263.7 459.405 262.528 461.528 260.445C466.262 255.797 467.362 249.244 464.431 243.159C463.345 240.905 460.234 237.784 457.974 236.682C455.811 235.628 453.532 235.101 451.244 235.103Z" fill="white"/>
<path d="M207.813 236.766C215.53 236.766 221.785 230.481 221.785 222.728C221.785 214.976 215.53 208.691 207.813 208.691C200.097 208.691 193.841 214.976 193.841 222.728C193.841 230.481 200.097 236.766 207.813 236.766Z" stroke="white" stroke-width="3.93159" stroke-linecap="round" stroke-linejoin="round"/>
<path d="M193.841 222.728H117.214" stroke="white" stroke-width="4.32472" stroke-linejoin="round"/>
<path d="M363.978 564.014C356.262 564.014 350.006 557.729 350.006 549.976C350.006 542.224 356.262 535.939 363.978 535.939C371.695 535.939 377.95 542.224 377.95 549.976C377.95 557.729 371.695 564.014 363.978 564.014Z" stroke="white" stroke-width="3.93159" stroke-linecap="round" stroke-linejoin="round"/>
<path d="M377.95 547.596H447.315L454.052 536.668C473.418 536.695 488.667 536.695 503.332 536.689" stroke="white" stroke-width="4.32472" stroke-linejoin="round"/>
<path d="M107.421 520.569C99.7045 520.569 93.449 514.284 93.449 506.532C93.449 498.779 99.7045 492.494 107.421 492.494C115.137 492.494 121.393 498.779 121.393 506.532C121.393 514.284 115.137 520.569 107.421 520.569Z" stroke="white" stroke-width="3.93159" stroke-linecap="round" stroke-linejoin="round"/>
<path d="M121.393 506.532H198.02" stroke="white" stroke-width="4.32472" stroke-linejoin="round"/>
<path d="M16.1725 408.085C8.456 408.085 2.20051 401.801 2.20051 394.048C2.20051 386.295 8.456 380.01 16.1725 380.01C23.889 380.01 30.1445 386.295 30.1445 394.048C30.1445 401.801 23.889 408.085 16.1725 408.085Z" stroke="white" stroke-width="3.93159" stroke-linecap="round" stroke-linejoin="round"/>
<path d="M30.1445 391.668H99.5088L106.246 380.739C125.612 380.766 140.862 380.766 155.527 380.761" stroke="white" stroke-width="4.32472" stroke-linejoin="round"/>
<path d="M739.733 285.993C747.45 285.993 753.705 292.278 753.705 300.031C753.705 307.783 747.45 314.068 739.733 314.068C732.017 314.068 725.761 307.783 725.761 300.031C725.761 292.278 732.017 285.993 739.733 285.993Z" stroke="white" stroke-width="3.93159" stroke-linecap="round" stroke-linejoin="round"/>
<path d="M725.761 302.41H656.397L649.659 313.339C630.294 313.312 615.044 313.312 600.379 313.317" stroke="white" stroke-width="4.32472" stroke-linejoin="round"/>
<path d="M661.625 443.227C669.342 443.227 675.597 436.942 675.597 429.189C675.597 421.436 669.342 415.152 661.625 415.152C653.909 415.152 647.653 421.436 647.653 429.189C647.653 436.942 653.909 443.227 661.625 443.227Z" stroke="white" stroke-width="3.93159" stroke-linecap="round" stroke-linejoin="round"/>
<path d="M647.653 429.189H571.026" stroke="white" stroke-width="4.32472" stroke-linejoin="round"/>
<path d="M575.615 72.3135C583.331 72.3135 589.587 78.5983 589.587 86.351C589.587 94.1037 583.331 100.388 575.615 100.388C567.898 100.388 561.643 94.1037 561.643 86.351C561.643 78.5983 567.898 72.3135 575.615 72.3135Z" stroke="white" stroke-width="3.93159" stroke-linecap="round" stroke-linejoin="round"/>
<path d="M561.643 88.7308H492.279L485.541 99.6598C466.176 99.6325 450.926 99.6325 436.261 99.638" stroke="white" stroke-width="4.32472" stroke-linejoin="round"/>
<path d="M258.576 60.6244C250.86 60.6244 244.604 54.3396 244.604 46.5869C244.604 38.8342 250.86 32.5494 258.576 32.5494C266.293 32.5494 272.548 38.8342 272.548 46.5869C272.548 54.3396 266.293 60.6244 258.576 60.6244Z" stroke="white" stroke-width="3.93159" stroke-linecap="round" stroke-linejoin="round"/>
<path d="M272.548 46.5869H349.176" stroke="white" stroke-width="4.32472" stroke-linejoin="round"/>
</svg>
